<svg width="281" height="123" viewBox="0 0 281 123" fill="none" xmlns="http://www.w3.org/2000/svg">
<path d="M12.5437 122.809C13.2663 123.214 14.1805 122.956 14.5855 122.233L21.1856 110.457C21.5906 109.734 21.3331 108.82 20.6104 108.415C19.8877 108.01 18.9736 108.267 18.5686 108.99L12.7018 119.458L2.23371 113.591C1.51104 113.186 0.596869 113.444 0.191855 114.167C-0.213159 114.889 0.0443544 115.803 0.767027 116.208L12.5437 122.809ZM13.277 121.5L14.7208 121.093C13.2468 115.861 14.7419 106.161 25.4136 94.9465C36.0672 83.7509 55.7639 71.1882 90.2239 60.4319L89.777 59L89.3301 57.5681C54.5901 68.4118 34.3701 81.1824 23.2404 92.8785C12.1288 104.555 9.97385 115.306 11.8332 121.907L13.277 121.5ZM89.777 59L90.2239 60.4319C124.946 49.5938 146.763 37.4335 159.932 26.5565C173.03 15.7387 177.777 6.00587 177.777 1.64509e-05L176.277 0L174.777 -1.64509e-05C174.777 4.6608 170.875 13.628 158.022 24.2435C145.241 34.7998 123.808 46.8062 89.3301 57.5681L89.777 59Z" fill="#FF6D6D"/>
<path d="M115.581 122.809C116.303 123.214 117.218 122.956 117.623 122.233L124.223 110.457C124.628 109.734 124.37 108.82 123.648 108.415C122.925 108.01 122.011 108.267 121.606 108.99L115.739 119.458L105.271 113.591C104.548 113.186 103.634 113.444 103.229 114.167C102.824 114.889 103.081 115.803 103.804 116.208L115.581 122.809ZM116.314 121.5L117.758 121.093C116.284 115.861 117.779 106.161 128.451 94.9465C139.104 83.7509 158.801 71.1882 193.261 60.4319L192.814 59L192.367 57.5681C157.627 68.4118 137.407 81.1824 126.277 92.8785C115.166 104.555 113.011 115.306 114.87 121.907L116.314 121.5ZM192.814 59L193.261 60.4319C227.983 49.5938 249.8 37.4335 262.969 26.5565C276.067 15.7387 280.814 6.00587 280.814 1.64509e-05L279.314 0L277.814 -1.64509e-05C277.814 4.6608 273.912 13.628 261.059 24.2435C248.278 34.7998 226.845 46.8062 192.367 57.5681L192.814 59Z" fill="#FF6D6D"/>
</svg>
